# xmcd CD Database Entry
#
# Track frame offsets:
# 150
# 65687
# 121712
# 148125
# 201700
#
# Disc length: 3583 seconds
#
# Revision: 2
# Processed by: cddbd v1.4b41PL1 Copyright (c) Steve Scherf et al.
# Submitted via: tcd 2.0b
#
DISCID=500dfd05
DTITLE=Tchaikovsky - Symphony No. 5 in E minor and Overture 1812
DYEAR=1900
DGENRE=
TTITLE0=Andante - Allegro con anima
TTITLE1=Andante cantabile, con alcuna licenza
TTITLE2=Valse: Allegro moderato
TTITLE3=Finale: Andante maestoso - Allegro vivace
TTITLE4=Overture "1812", opus 49
EXTD=Chicago Symphony Orchestra under Daniel Barenboim
EXTT0=
EXTT1=
EXTT2=
EXTT3=
EXTT4=
PLAYORDER=
